<svg width="30" height="30" viewBox="0 0 30 30" fill="none" xmlns="http://www.w3.org/2000/svg">
<path d="M23.8125 6.13744C22.6663 4.98008 21.3013 4.0624 19.7969 3.4379C18.2925 2.81339 16.6789 2.49455 15.05 2.49995C8.225 2.49995 2.6625 8.06245 2.6625 14.8874C2.6625 17.0749 3.2375 19.1999 4.3125 21.0749L2.5625 27.4999L9.125 25.7749C10.9375 26.7624 12.975 27.2874 15.05 27.2874C21.875 27.2874 27.4375 21.7249 27.4375 14.8999C27.4375 11.5874 26.15 8.47495 23.8125 6.13744ZM15.05 25.1874C13.2 25.1874 11.3875 24.6874 9.8 23.7499L9.425 23.5249L5.525 24.5499L6.5625 20.7499L6.3125 20.3624C5.28443 18.7213 4.73866 16.824 4.7375 14.8874C4.7375 9.21245 9.3625 4.58745 15.0375 4.58745C17.7875 4.58745 20.375 5.66245 22.3125 7.61245C23.272 8.56727 24.0324 9.70312 24.5495 10.9541C25.0667 12.2051 25.3302 13.5463 25.325 14.8999C25.35 20.5749 20.725 25.1874 15.05 25.1874ZM20.7 17.4874C20.3875 17.3374 18.8625 16.5874 18.5875 16.4749C18.3 16.3749 18.1 16.3249 17.8875 16.6249C17.675 16.9374 17.0875 17.6374 16.9125 17.8374C16.7375 18.0499 16.55 18.0749 16.2375 17.9124C15.925 17.7624 14.925 17.4249 13.75 16.3749C12.825 15.5499 12.2125 14.5374 12.025 14.2249C11.85 13.9124 12 13.7499 12.1625 13.5874C12.3 13.4499 12.475 13.2249 12.625 13.0499C12.775 12.8749 12.8375 12.7374 12.9375 12.5374C13.0375 12.3249 12.9875 12.1499 12.9125 11.9999C12.8375 11.8499 12.2125 10.3249 11.9625 9.69995C11.7125 9.09995 11.45 9.17495 11.2625 9.16245H10.6625C10.45 9.16245 10.125 9.23744 9.8375 9.54994C9.5625 9.86244 8.7625 10.6124 8.7625 12.1374C8.7625 13.6624 9.875 15.1374 10.025 15.3374C10.175 15.5499 12.2125 18.6749 15.3125 20.0124C16.05 20.3374 16.625 20.5249 17.075 20.6624C17.8125 20.8999 18.4875 20.8624 19.025 20.7874C19.625 20.6999 20.8625 20.0374 21.1125 19.3124C21.375 18.5874 21.375 17.9749 21.2875 17.8374C21.2 17.6999 21.0125 17.6374 20.7 17.4874Z" fill="black"/>
</svg>
