<svg width="80" height="80" viewBox="0 0 80 80" fill="none" xmlns="http://www.w3.org/2000/svg">
<path d="M40.0002 19.9999V33.3332M25.0002 63.3332C27.1835 69.1599 33.0735 73.3332 40.0002 73.3332C40.8158 73.3332 41.6158 73.2777 42.4002 73.1665M55.0002 63.3332C54.0973 65.7127 52.6038 67.8234 50.6602 69.4665M30.3569 8.9132C33.3548 7.43001 36.6554 6.66104 40.0002 6.66653C52.4235 6.66653 62.5002 17.1199 62.5002 30.0165V32.3665C62.4962 35.1717 63.2967 37.9192 64.8069 40.2832L68.5002 46.0299C71.8702 51.2799 69.2969 58.4165 63.4335 60.0765C48.1126 64.4154 31.8878 64.4154 16.5669 60.0765C10.7035 58.4165 8.13021 51.2799 11.5002 46.0332L15.1935 40.2832C16.7037 37.9192 17.5042 35.1717 17.5002 32.3665V30.0165C17.5002 26.4365 18.2769 23.0432 19.6669 20.0099" stroke="#9E7900" stroke-width="1.5" stroke-linecap="round"/>
</svg>
