<svg width="35" height="35" viewBox="0 0 35 35" fill="none" xmlns="http://www.w3.org/2000/svg">
<path d="M24.7914 17.5C26.3771 17.4997 27.9195 16.9825 29.1848 16.0269C30.4502 15.0712 31.3695 13.7291 31.8035 12.2039C32.2375 10.6788 32.1624 9.05374 31.5898 7.57506C31.0172 6.09639 29.9781 4.84468 28.6301 4.00963C27.2821 3.17458 25.6987 2.80171 24.1197 2.94753C22.5407 3.09334 21.0523 3.7499 19.88 4.81769C18.7078 5.88548 17.9155 7.3063 17.6234 8.86484C17.3312 10.4234 17.5551 12.0347 18.261 13.4546C18.3941 13.7125 18.4288 14.01 18.3587 14.2916L17.9241 15.9148C17.8811 16.0755 17.8811 16.2447 17.9242 16.4054C17.9673 16.566 18.0519 16.7126 18.1695 16.8302C18.2872 16.9478 18.4337 17.0325 18.5944 17.0755C18.7551 17.1186 18.9243 17.1186 19.085 17.0756L20.7081 16.641C20.9897 16.5709 21.2873 16.6056 21.5452 16.7387C22.554 17.2398 23.6651 17.5004 24.7914 17.5Z" fill="#9E7900"/>
<path d="M11.7219 10.6691L12.6684 12.3652C13.5215 13.8964 13.1788 15.9031 11.8342 17.2491C11.8342 17.2491 10.2009 18.881 13.1613 21.84C16.1173 24.796 17.7507 23.167 17.7507 23.167C19.0967 21.821 21.1048 21.4783 22.6346 22.3314L24.3307 23.2793C26.6421 24.5685 26.9148 27.8089 24.8834 29.8418C23.6627 31.061 22.1665 32.0118 20.5142 32.0731C17.7317 32.1795 13.0052 31.4752 8.2642 26.7356C3.52462 21.9945 2.82025 17.2681 2.92671 14.4856C2.98941 12.8333 3.93879 11.337 5.15796 10.1164C7.19087 8.08496 10.4313 8.35767 11.7205 10.6706" fill="#9E7900"/>
</svg>
