<svg width="80" height="80" viewBox="0 0 80 80" fill="none" xmlns="http://www.w3.org/2000/svg">
<path d="M4.16663 35C4.16663 35.663 4.43002 36.2989 4.89886 36.7677C5.3677 37.2366 6.00358 37.5 6.66663 37.5C7.32967 37.5 7.96555 37.2366 8.43439 36.7677C8.90323 36.2989 9.16663 35.663 9.16663 35H4.16663ZM10.2466 52.0866C9.9929 51.474 9.5062 50.9872 8.89358 50.7334C8.28096 50.4796 7.59261 50.4796 6.97996 50.7333C6.36731 50.987 5.88054 51.4737 5.62674 52.0863C5.37294 52.699 5.3729 53.3873 5.62663 54L10.2466 52.0866ZM45.7733 72.5666L47.58 69.5133L43.28 66.9666L41.47 70.02L45.7733 72.5666ZM32.42 69.5133L34.2266 72.5666L38.5266 70.02L36.7233 66.9666L32.42 69.5133ZM41.47 70.02C41.3142 70.2693 41.0975 70.4749 40.8403 70.6175C40.5832 70.76 40.294 70.8348 40 70.8348C39.7059 70.8348 39.4167 70.76 39.1596 70.6175C38.9024 70.4749 38.6858 70.2693 38.53 70.02L34.2266 72.5666C36.8033 76.9233 43.1933 76.9233 45.7733 72.5666L41.47 70.02ZM35 9.16663H45V4.16663H35V9.16663ZM70.8333 35V38.3333H75.8333V35H70.8333ZM26.01 60.8066C21.8233 60.7333 19.63 60.4666 17.91 59.7533L16 64.3733C18.6833 65.4866 21.7366 65.7366 25.9233 65.81L26.01 60.8066ZM5.62663 54C6.58984 56.3255 8.00169 58.4385 9.78156 60.2184C11.5614 61.9982 13.6744 63.4101 16 64.3733L17.91 59.7533C14.4389 58.3155 11.6845 55.5577 10.2466 52.0866L5.62663 54ZM70.8333 38.3333C70.8333 42.25 70.8333 45.0633 70.68 47.2833C70.53 49.48 70.2433 50.9133 69.7566 52.0866L74.3733 54C75.1566 52.1133 75.5 50.0733 75.67 47.6233C75.8366 45.1933 75.8333 42.1833 75.8333 38.3333H70.8333ZM54.0766 65.8033C58.2633 65.7333 61.3166 65.4866 64 64.3733L62.0866 59.7533C60.37 60.4666 58.1766 60.7333 53.9933 60.8066L54.0766 65.8033ZM69.7566 52.0866C68.3188 55.5577 65.561 58.3155 62.09 59.7533L64 64.3733C66.3255 63.4101 68.4385 61.9982 70.2184 60.2184C71.9982 58.4385 73.4101 56.3255 74.3733 54L69.7566 52.0866ZM45 9.16663C50.5033 9.16663 54.4566 9.16663 57.54 9.46329C60.5866 9.75329 62.5233 10.3066 64.07 11.2533L66.68 6.98996C64.2166 5.48329 61.4233 4.80996 58.0133 4.48329C54.64 4.16329 50.4066 4.16663 45 4.16663V9.16663ZM75.8333 35C75.8333 29.5933 75.8333 25.3633 75.5133 21.9866C75.19 18.5766 74.5166 15.78 73.01 13.32L68.7433 15.93C69.6933 17.4766 70.2466 19.4133 70.5366 22.4633C70.83 25.5433 70.8333 29.4966 70.8333 35H75.8333ZM64.0666 11.2533C65.9739 12.4209 67.5776 14.0235 68.7466 15.93L73.01 13.32C71.4292 10.7399 69.26 8.57072 66.68 6.98996L64.0666 11.2533ZM35 4.16663C29.5933 4.16663 25.3633 4.16663 21.9866 4.48329C18.5766 4.80996 15.78 5.48329 13.32 6.98996L15.93 11.2566C17.4766 10.3066 19.4133 9.75329 22.4633 9.46329C25.5433 9.16996 29.4966 9.16663 35 9.16663V4.16663ZM9.16663 35C9.16663 29.4966 9.16663 25.5433 9.46329 22.46C9.75329 19.4133 10.3066 17.4766 11.2533 15.93L6.98996 13.3233C5.48329 15.7833 4.80996 18.5766 4.48329 21.9866C4.16663 25.3666 4.16663 29.5933 4.16663 35H9.16663ZM13.32 6.98996C10.7399 8.57072 8.57072 10.7432 6.98996 13.3233L11.2566 15.93C12.4237 14.0243 14.0251 12.4218 15.93 11.2533L13.32 6.98996ZM36.72 66.9666C36.0466 65.8233 35.4533 64.8133 34.8733 64.02C34.279 63.1481 33.5036 62.4147 32.6 61.87L30.0866 66.1933C30.2433 66.2866 30.46 66.4533 30.8333 66.9666C31.2366 67.52 31.6933 68.2866 32.42 69.5133L36.72 66.9666ZM25.9233 65.8033C27.39 65.83 28.3133 65.85 29.02 65.9266C29.68 66 29.9366 66.1066 30.0866 66.1933L32.6 61.87C31.6685 61.3486 30.6344 61.0369 29.57 60.9566C28.5766 60.8466 27.3833 60.83 26.01 60.8066L25.9233 65.8033ZM47.58 69.5133C48.3066 68.29 48.7633 67.52 49.1666 66.9666C49.54 66.4533 49.7566 66.2866 49.9133 66.1933L47.4 61.87C46.4333 62.4366 45.7333 63.1866 45.1266 64.02C44.55 64.8133 43.9533 65.82 43.2766 66.9666L47.58 69.5133ZM53.9933 60.8066C52.62 60.83 51.4233 60.8466 50.43 60.9566C49.3933 61.0733 48.3766 61.3033 47.4 61.87L49.9133 66.1933C50.0633 66.1066 50.32 66 50.98 65.9266C51.6866 65.85 52.6133 65.8266 54.08 65.8033L53.9933 60.8066Z" fill="white"/>
<path d="M26.6666 36.6666H26.6966M39.97 36.6666H40M53.3033 36.6666H53.3333" stroke="white" stroke-width="2" stroke-linecap="round" stroke-linejoin="round"/>
</svg>
