<svg width="80" height="80" viewBox="0 0 80 80" fill="none" xmlns="http://www.w3.org/2000/svg">
<path d="M64.5725 32.79C63.4677 27.0819 60.4118 21.9358 55.9286 18.2339C51.4453 14.532 45.8141 12.5049 40 12.5V17.5C44.6516 17.5048 49.1568 19.1268 52.7439 22.0882C56.331 25.0495 58.7768 29.166 59.6625 33.7325L60.31 37.0975L63.6825 37.71C67.0595 38.3213 70.0861 40.1729 72.1678 42.9013C74.2496 45.6297 75.2363 49.0377 74.9341 52.4563C74.6319 55.8749 73.0626 59.057 70.5345 61.3778C68.0063 63.6987 64.7019 64.9906 61.27 65H40V70H61.27C65.9503 69.9898 70.4576 68.2301 73.9067 65.0664C77.3558 61.9027 79.4974 57.5638 79.9108 52.9018C80.3243 48.2399 78.9797 43.5918 76.1412 39.8705C73.3027 36.1492 69.1754 33.6237 64.57 32.79M20 60H35V65H20V60ZM10 60H15V65H10V60ZM15 50H35V55H15V50ZM5 50H10V55H5V50ZM20 40H35V45H20V40ZM10 40H15V45H10V40ZM25 30H35V35H25V30ZM15 30H20V35H15V30ZM30 20H35V25H30V20Z" fill="#9E7900"/>
</svg>
