<svg width="35" height="35" viewBox="0 0 35 35" fill="none" xmlns="http://www.w3.org/2000/svg">
<path d="M6.73167 27.7083C6.05986 27.7083 5.49938 27.4837 5.05021 27.0345C4.60104 26.5854 4.37597 26.0244 4.375 25.3516V9.64829C4.375 8.97649 4.60007 8.416 5.05021 7.96683C5.50035 7.51767 6.06035 7.2926 6.73021 7.29163H28.2698C28.9406 7.29163 29.5006 7.5167 29.9498 7.96683C30.399 8.41697 30.624 8.97746 30.625 9.64829V25.3531C30.625 26.0239 30.3999 26.5844 29.9498 27.0345C29.4997 27.4847 28.9397 27.7093 28.2698 27.7083H6.73167ZM6.73167 26.25H28.2698C28.4934 26.25 28.699 26.1566 28.8867 25.97C29.0743 25.7833 29.1676 25.5772 29.1667 25.3516V11.6666H5.83333V25.3531C5.83333 25.5767 5.92667 25.7823 6.11333 25.97C6.3 26.1576 6.50562 26.2509 6.73021 26.25M15.9688 23.0708L11.8008 18.9029L12.8508 17.8529L15.9688 20.9723L22.1506 14.7904L23.1992 15.8404L15.9688 23.0708ZM6.73167 26.25H5.83333V8.74996H6.73167C6.50708 8.74996 6.30097 8.84329 6.11333 9.02996C5.92569 9.21663 5.83236 9.42274 5.83333 9.64829V25.3531C5.83333 25.5767 5.92667 25.7823 6.11333 25.97C6.3 26.1576 6.50562 26.2509 6.73021 26.25" fill="#9E7900"/>
</svg>
