<svg width="22" height="22" viewBox="0 0 22 22" fill="none" xmlns="http://www.w3.org/2000/svg">
<path d="M7.33337 20.1667H14.6667C17.259 20.1667 18.5561 20.1667 19.361 19.3618C20.1667 18.5552 20.1667 17.2599 20.1667 14.6667V13.75C20.1667 11.1577 20.1667 9.8615 19.361 9.05575C18.657 8.35175 17.5771 8.26283 15.5834 8.25183M6.41671 8.25183C4.42296 8.26283 3.34312 8.35175 2.63912 9.05575C1.83337 9.8615 1.83337 11.1577 1.83337 13.75V14.6667C1.83337 17.2599 1.83337 18.5561 2.63912 19.3618C2.91412 19.6368 3.24596 19.8174 3.66671 19.9366" stroke="white" stroke-width="1.5" stroke-linecap="round"/>
<path d="M11 1.83333V13.75M11 13.75L8.25 10.5417M11 13.75L13.75 10.5417" stroke="white" stroke-width="1.5" stroke-linecap="round" stroke-linejoin="round"/>
</svg>
