<svg width="35" height="35" viewBox="0 0 35 35" fill="none" xmlns="http://www.w3.org/2000/svg">
<path d="M31.7188 23.2728V20.7812C31.7188 19.6209 31.2578 18.5081 30.4373 17.6877C29.6169 16.8672 28.5041 16.4062 27.3438 16.4062C26.1834 16.4062 25.0706 16.8672 24.2502 17.6877C23.4297 18.5081 22.9688 19.6209 22.9688 20.7812V23.2728C22.6378 23.4639 22.3627 23.7383 22.1708 24.0687C21.9789 24.3992 21.8769 24.7741 21.875 25.1562V30.625C21.8759 31.2049 22.1066 31.7608 22.5167 32.1708C22.9267 32.5809 23.4826 32.8116 24.0625 32.8125H30.625C31.2049 32.8116 31.7608 32.5809 32.1708 32.1708C32.5809 31.7608 32.8116 31.2049 32.8125 30.625V25.1562C32.8106 24.7741 32.7086 24.3992 32.5167 24.0687C32.3248 23.7383 32.0497 23.4639 31.7188 23.2728ZM27.3438 18.5938C27.9236 18.5946 28.4795 18.8254 28.8896 19.2354C29.2996 19.6455 29.5304 20.2014 29.5312 20.7812V22.9688H25.1562V20.7812C25.1571 20.2014 25.3879 19.6455 25.7979 19.2354C26.208 18.8254 26.7639 18.5946 27.3438 18.5938ZM24.0625 30.625V25.1562H30.625V30.625H24.0625ZM2.1875 2.1875H4.375V6.5625H2.1875V2.1875ZM15.3125 2.1875H17.5V6.5625H15.3125V2.1875ZM19.6875 2.1875H21.875V6.5625H19.6875V2.1875ZM2.1875 8.75H4.375V17.5H2.1875V8.75ZM2.1875 19.6875H4.375V28.4375H2.1875V19.6875ZM15.3125 19.6875H17.5V28.4375H15.3125V19.6875ZM6.5625 8.75H8.75V17.5H6.5625V8.75ZM19.6875 8.75H21.875V15.3125H19.6875V8.75ZM10.9375 28.4375H8.75C8.16984 28.4375 7.61344 28.207 7.2032 27.7968C6.79297 27.3866 6.5625 26.8302 6.5625 26.25V21.875C6.5625 21.2948 6.79297 20.7384 7.2032 20.3282C7.61344 19.918 8.16984 19.6875 8.75 19.6875H10.9375C11.5177 19.6875 12.0741 19.918 12.4843 20.3282C12.8945 20.7384 13.125 21.2948 13.125 21.875V26.25C13.125 26.8302 12.8945 27.3866 12.4843 27.7968C12.0741 28.207 11.5177 28.4375 10.9375 28.4375ZM8.75 21.875V26.25H10.9375V21.875H8.75ZM15.3125 17.5H13.125C12.5448 17.5 11.9884 17.2695 11.5782 16.8593C11.168 16.4491 10.9375 15.8927 10.9375 15.3125V10.9375C10.9375 10.3573 11.168 9.80094 11.5782 9.3907C11.9884 8.98047 12.5448 8.75 13.125 8.75H15.3125C15.8927 8.75 16.4491 8.98047 16.8593 9.3907C17.2695 9.80094 17.5 10.3573 17.5 10.9375V15.3125C17.5 15.8927 17.2695 16.4491 16.8593 16.8593C16.4491 17.2695 15.8927 17.5 15.3125 17.5ZM13.125 10.9375V15.3125H15.3125V10.9375H13.125ZM10.9375 6.5625H8.75C8.16984 6.5625 7.61344 6.33203 7.2032 5.9218C6.79297 5.51156 6.5625 4.95516 6.5625 4.375V2.1875H8.75V4.375H10.9375V2.1875H13.125V4.375C13.125 4.95516 12.8945 5.51156 12.4843 5.9218C12.0741 6.33203 11.5177 6.5625 10.9375 6.5625Z" fill="#9E7900"/>
</svg>
