<svg width="30" height="30" viewBox="0 0 30 30" fill="none" xmlns="http://www.w3.org/2000/svg">
<path d="M21.5425 2.81247H8.43005C7.68695 2.8118 6.95107 2.95837 6.26494 3.24372C5.57881 3.52907 4.95602 3.94755 4.43255 4.47497C3.91111 5.00071 3.49937 5.62484 3.22126 6.3111C2.94316 6.99736 2.80423 7.73205 2.81255 8.47247V21.5275C2.80353 22.268 2.94214 23.0029 3.22029 23.6892C3.49844 24.3756 3.91054 24.9997 4.43255 25.525C4.95587 26.0522 5.57846 26.4706 6.26437 26.756C6.95027 27.0413 7.68591 27.188 8.4288 27.1875H14.3825V18.48H12.1075C11.9667 18.479 11.8319 18.4228 11.7321 18.3234C11.6323 18.2241 11.5754 18.0895 11.5738 17.9487V15.1537C11.5736 15.0819 11.5877 15.0107 11.6152 14.9444C11.6427 14.878 11.683 14.8178 11.7339 14.7671C11.7848 14.7164 11.8453 14.6763 11.9118 14.6491C11.9783 14.622 12.0495 14.6082 12.1213 14.6087H14.3825V11.8837C14.3191 11.2397 14.3978 10.5896 14.6129 9.97925C14.828 9.36891 15.1743 8.81317 15.6275 8.35122C16.0812 7.88718 16.6306 7.52767 17.2375 7.29774C17.8443 7.06782 18.494 6.97303 19.1413 7.01997H21.4588C21.5297 7.02046 21.5998 7.03497 21.6651 7.06267C21.7304 7.09037 21.7895 7.13071 21.8391 7.18137C21.8887 7.23203 21.9278 7.29201 21.9542 7.35784C21.9805 7.42368 21.9935 7.49407 21.9925 7.56497V9.92747C21.9925 9.99739 21.9787 10.0666 21.9518 10.1312C21.925 10.1957 21.8856 10.2543 21.836 10.3036C21.7864 10.3528 21.7275 10.3918 21.6628 10.4182C21.598 10.4446 21.5287 10.458 21.4588 10.4575H20.055C18.51 10.4575 18.215 11.185 18.215 12.2462V14.595H21.585C21.661 14.5946 21.7362 14.6104 21.8056 14.6413C21.875 14.6723 21.937 14.7176 21.9875 14.7744C22.038 14.8311 22.0758 14.898 22.0985 14.9705C22.1211 15.043 22.128 15.1196 22.1188 15.195L21.7813 17.9912C21.7676 18.1227 21.7052 18.2443 21.6065 18.3322C21.5077 18.4201 21.3797 18.4679 21.2475 18.4662H18.2288V27.1737H21.5713C22.3142 27.1742 23.0498 27.0276 23.7357 26.7422C24.4216 26.4569 25.0442 26.0385 25.5675 25.5112C26.0891 24.9853 26.501 24.361 26.7791 23.6745C27.0572 22.988 27.196 22.2531 27.1875 21.5125V8.47247C27.1973 7.72948 27.0581 6.99206 26.7781 6.30376C26.4982 5.61546 26.0831 4.99022 25.5575 4.46497C25.0312 3.93726 24.4052 3.51941 23.7159 3.23573C23.0267 2.95204 22.2879 2.80817 21.5425 2.81247Z" fill="white"/>
</svg>
