<svg width="35" height="35" viewBox="0 0 35 35" fill="none" xmlns="http://www.w3.org/2000/svg">
<path fill-rule="evenodd" clip-rule="evenodd" d="M8.25128 5.03712C8.98919 4.77462 9.73878 4.73962 10.3586 4.73962H11.2511C12.7575 4.73962 14.2261 5.20629 15.4554 6.07692L16.1875 6.59462C16.5715 6.86581 17.03 7.01141 17.5 7.01141C17.9701 7.01141 18.4286 6.86581 18.8125 6.59462L19.5446 6.07692C20.7744 5.20769 22.2431 4.74053 23.749 4.73962H24.6415C25.2627 4.73962 26.0123 4.77462 26.7488 5.03712C28.8531 5.78379 30.5171 7.49879 31.6138 10.274C32.6988 13.0215 33.2559 16.8657 33.1684 22.0427C33.1494 23.1365 33.0138 24.3615 32.5923 25.464C32.1679 26.5825 31.4227 27.6369 30.1715 28.2348C29.3906 28.6097 28.5352 28.8036 27.669 28.8021C26.6652 28.8143 25.6801 28.5303 24.8369 27.9855C24.1486 27.5334 23.5463 26.95 23.0315 26.4513L22.8463 26.2734C22.2571 25.7046 21.7598 25.2627 21.2086 24.9755C20.5131 24.6155 19.7415 24.4275 18.9584 24.4271H16.0417C15.258 24.4277 14.4858 24.6162 13.79 24.9769C13.2388 25.2627 12.7415 25.7061 12.1523 26.2748L11.9671 26.4527C11.4523 26.95 10.85 27.5348 10.1617 27.9869C9.31835 28.5312 8.33326 28.8148 7.32961 28.8021C6.46329 28.8031 5.6079 28.6087 4.82711 28.2334C3.5744 27.6355 2.83065 26.5825 2.40628 25.464C1.98482 24.3615 1.84919 23.1365 1.83023 22.0427C1.74273 16.8657 2.29982 13.0215 3.38482 10.274C4.48148 7.49879 6.1469 5.78233 8.25128 5.03712ZM10.3586 6.92712C9.79857 6.92712 9.35669 6.9665 8.98336 7.09775C7.61253 7.58483 6.34523 8.73837 5.42065 11.079C4.48586 13.4459 3.93315 16.9648 4.01919 22.0063C4.03523 22.9717 4.15773 23.9138 4.45086 24.6852C4.73961 25.4436 5.16544 25.9715 5.77211 26.2602C6.25816 26.4951 6.79126 26.6163 7.33107 26.6146C8.03836 26.6146 8.56773 26.4163 8.9644 26.1567C9.46753 25.8257 9.91669 25.394 10.4548 24.8734L10.6357 24.6984C11.2204 24.1355 11.919 23.4821 12.7838 23.0359C13.7908 22.5134 14.9086 22.2403 16.0432 22.2396H18.9584C20.0929 22.2396 21.21 22.5123 22.2177 23.0344C23.0811 23.4821 23.7811 24.1355 24.3659 24.6969L24.5467 24.8719C25.0863 25.394 25.534 25.8257 26.0386 26.1552C26.4338 26.4163 26.9632 26.6146 27.6719 26.6146C28.2654 26.6146 28.7831 26.4746 29.2294 26.2617C29.8361 25.97 30.2619 25.4436 30.5506 24.6867C30.8438 23.9138 30.9663 22.9717 30.9823 22.0063C31.0669 16.9648 30.5157 13.4459 29.5809 11.0775C28.6563 8.73837 27.389 7.58483 26.0182 7.09775C25.6448 6.9665 25.2015 6.92712 24.6429 6.92712H23.7504C22.6975 6.92712 21.6694 7.25379 20.809 7.86192L20.0769 8.38108C19.3236 8.91342 18.4239 9.19925 17.5015 9.19925C16.5791 9.19925 15.6793 8.91342 14.9261 8.38108L14.194 7.86192C13.3335 7.25424 12.306 6.92771 11.2525 6.92712H10.3586ZM10.9375 12.0313C11.2276 12.0313 11.5058 12.1465 11.7109 12.3516C11.916 12.5568 12.0313 12.835 12.0313 13.125V14.2188H13.125C13.4151 14.2188 13.6933 14.334 13.8984 14.5391C14.1035 14.7443 14.2188 15.0225 14.2188 15.3125C14.2188 15.6026 14.1035 15.8808 13.8984 16.0859C13.6933 16.2911 13.4151 16.4063 13.125 16.4063H12.0313V17.5C12.0313 17.7901 11.916 18.0683 11.7109 18.2734C11.5058 18.4786 11.2276 18.5938 10.9375 18.5938C10.6474 18.5938 10.3692 18.4786 10.1641 18.2734C9.95901 18.0683 9.84378 17.7901 9.84378 17.5V16.4063H8.75003C8.45995 16.4063 8.18175 16.2911 7.97663 16.0859C7.77151 15.8808 7.65628 15.6026 7.65628 15.3125C7.65628 15.0225 7.77151 14.7443 7.97663 14.5391C8.18175 14.334 8.45995 14.2188 8.75003 14.2188H9.84378V13.125C9.84378 12.835 9.95901 12.5568 10.1641 12.3516C10.3692 12.1465 10.6474 12.0313 10.9375 12.0313Z" fill="#9E7900"/>
<path d="M27.7085 14.9479C27.7085 15.238 27.5933 15.5162 27.3881 15.7213C27.183 15.9264 26.9048 16.0416 26.6147 16.0416C26.3247 16.0416 26.0465 15.9264 25.8413 15.7213C25.6362 15.5162 25.521 15.238 25.521 14.9479C25.521 14.6578 25.6362 14.3796 25.8413 14.1745C26.0465 13.9694 26.3247 13.8541 26.6147 13.8541C26.9048 13.8541 27.183 13.9694 27.3881 14.1745C27.5933 14.3796 27.7085 14.6578 27.7085 14.9479ZM23.3335 14.9479C23.3335 15.238 23.2183 15.5162 23.0131 15.7213C22.808 15.9264 22.5298 16.0416 22.2397 16.0416C21.9497 16.0416 21.6715 15.9264 21.4663 15.7213C21.2612 15.5162 21.146 15.238 21.146 14.9479C21.146 14.6578 21.2612 14.3796 21.4663 14.1745C21.6715 13.9694 21.9497 13.8541 22.2397 13.8541C22.5298 13.8541 22.808 13.9694 23.0131 14.1745C23.2183 14.3796 23.3335 14.6578 23.3335 14.9479ZM24.4272 11.6666C24.7173 11.6666 24.9955 11.7819 25.2006 11.987C25.4058 12.1921 25.521 12.4703 25.521 12.7604C25.521 13.0505 25.4058 13.3287 25.2006 13.5338C24.9955 13.7389 24.7173 13.8541 24.4272 13.8541C24.1372 13.8541 23.859 13.7389 23.6538 13.5338C23.4487 13.3287 23.3335 13.0505 23.3335 12.7604C23.3335 12.4703 23.4487 12.1921 23.6538 11.987C23.859 11.7819 24.1372 11.6666 24.4272 11.6666ZM24.4272 16.0416C24.5709 16.0416 24.7131 16.0699 24.8458 16.1249C24.9785 16.1798 25.0991 16.2604 25.2006 16.362C25.3022 16.4635 25.3828 16.5841 25.4377 16.7168C25.4927 16.8495 25.521 16.9917 25.521 17.1354C25.521 17.279 25.4927 17.4212 25.4377 17.5539C25.3828 17.6866 25.3022 17.8072 25.2006 17.9088C25.0991 18.0103 24.9785 18.0909 24.8458 18.1459C24.7131 18.2008 24.5709 18.2291 24.4272 18.2291C24.1372 18.2291 23.859 18.1139 23.6538 17.9088C23.4487 17.7037 23.3335 17.4255 23.3335 17.1354C23.3335 16.8453 23.4487 16.5671 23.6538 16.362C23.859 16.1569 24.1372 16.0416 24.4272 16.0416Z" fill="#9E7900"/>
</svg>
