<svg width="80" height="80" viewBox="0 0 80 80" fill="none" xmlns="http://www.w3.org/2000/svg">
<path d="M60 10H10V65H42.5L45 70H5V5H65V42.5L60 37.5V10Z" fill="white"/>
<path d="M15 25H54.995V20H15V25ZM15 40V35H45L42.5 40H15ZM15 55V50H27.5V55H15ZM53.435 72.64L53.265 72.92C53.1711 73.0315 53.054 73.1211 52.9219 73.1826C52.7897 73.2441 52.6458 73.276 52.5 73.276C52.3543 73.276 52.2103 73.2441 52.0781 73.1826C51.946 73.1211 51.8289 73.0315 51.735 72.92L51.565 72.64L51.22 71.765L52.5 72.27L53.775 71.77L53.435 72.64ZM51.57 32.36C51.6429 32.1719 51.7709 32.0102 51.9373 31.8962C52.1038 31.7822 52.3008 31.7212 52.5025 31.7212C52.7042 31.7212 52.9012 31.7822 53.0677 31.8962C53.2341 32.0102 53.3621 32.1719 53.435 32.36L56.475 40.075C57.2293 41.9873 58.3686 43.7242 59.8222 45.1778C61.2758 46.6314 63.0127 47.7707 64.925 48.525L71.77 51.225L72.27 52.5L71.77 53.775L64.925 56.475L64.21 56.775C60.6731 58.3869 57.9 61.3088 56.475 64.925L53.775 71.77L52.5 72.27L51.22 71.77L48.525 64.925C47.1 61.3088 44.3269 58.3869 40.79 56.775L40.075 56.475L32.36 53.435C32.1719 53.3621 32.0102 53.2341 31.8962 53.0677C31.7822 52.9012 31.7212 52.7042 31.7212 52.5025C31.7212 52.3008 31.7822 52.1038 31.8962 51.9373C32.0102 51.7709 32.1719 51.6429 32.36 51.57L33.23 51.22L40.075 48.525C43.6912 47.1 46.6131 44.3269 48.225 40.79L48.525 40.075L51.57 32.36ZM52.5 43.42C50.5537 47.3624 47.3624 50.5537 43.42 52.5C47.3617 54.4451 50.5528 57.6344 52.5 61.575C54.4459 57.6352 57.6352 54.4459 61.575 52.5C57.6344 50.5528 54.4451 47.3617 52.5 43.42ZM72.64 51.57C72.8281 51.6429 72.9898 51.7709 73.1038 51.9373C73.2178 52.1038 73.2788 52.3008 73.2788 52.5025C73.2788 52.7042 73.2178 52.9012 73.1038 53.0677C72.9898 53.2341 72.8281 53.3621 72.64 53.435L71.765 53.775L72.27 52.5L71.77 51.225L72.64 51.57Z" fill="white"/>
</svg>
