<svg width="26" height="26" viewBox="0 0 26 26" fill="none" xmlns="http://www.w3.org/2000/svg">
<path d="M18.9258 12.3283H15.0366C15.9357 12.0885 16.7812 11.6804 17.5283 11.1258C17.7955 10.8716 18.0091 10.5664 18.1565 10.2282C18.3039 9.89004 18.382 9.52579 18.3864 9.15694C18.3907 8.78809 18.3211 8.42211 18.1817 8.08059C18.0423 7.73906 17.8359 7.42892 17.5747 7.16844C17.3135 6.90797 17.0028 6.70245 16.6609 6.564C16.319 6.42555 15.9528 6.35697 15.584 6.36232C15.2152 6.36767 14.8511 6.44684 14.5134 6.59515C14.1756 6.74346 13.871 6.95791 13.6175 7.22585C13.3434 7.54923 13.1238 7.91514 12.9675 8.30918C12.8115 7.91256 12.5879 7.54601 12.3066 7.22585C12.0566 6.94445 11.7516 6.71714 11.4105 6.55786C11.0694 6.39859 10.6993 6.31072 10.323 6.29964C9.94672 6.28856 9.57213 6.35452 9.22224 6.49345C8.87236 6.63238 8.55455 6.84136 8.28836 7.10756C8.02216 7.37376 7.81318 7.69156 7.67424 8.04145C7.53531 8.39134 7.46936 8.76593 7.48043 9.14223C7.49151 9.51853 7.57938 9.88859 7.73866 10.2297C7.89793 10.5708 8.12525 10.8758 8.40664 11.1258C9.1538 11.6804 9.99926 12.0885 10.8983 12.3283H7.00914C6.50634 12.3283 6.02412 12.5281 5.66859 12.8836C5.31305 13.2392 5.11331 13.7214 5.11331 14.2242V15.3075C5.11615 15.8094 5.31681 16.29 5.67173 16.6449C6.02665 16.9999 6.50721 17.2005 7.00914 17.2033H11.9166C11.9885 17.2033 12.0574 17.1748 12.1082 17.124C12.1589 17.0732 12.1875 17.0043 12.1875 16.9325V12.3283H13.8125V16.9325C13.8125 17.0043 13.841 17.0732 13.8918 17.124C13.9426 17.1748 14.0115 17.2033 14.0833 17.2033H18.9583C19.4602 17.2005 19.9408 16.9999 20.2957 16.6449C20.6506 16.29 20.8513 15.8094 20.8541 15.3075V14.2242C20.8542 13.9725 20.8041 13.7232 20.7068 13.4911C20.6095 13.2589 20.4669 13.0485 20.2874 12.872C20.1079 12.6955 19.8951 12.5566 19.6613 12.4632C19.4275 12.3699 19.1775 12.324 18.9258 12.3283ZM15.1666 8.75335C15.2222 8.69809 15.2881 8.65434 15.3606 8.6246C15.4331 8.59485 15.5108 8.5797 15.5891 8.58002C15.7425 8.58735 15.8884 8.64876 16.0008 8.75335C16.11 8.86473 16.1711 9.01447 16.1711 9.17043C16.1711 9.32639 16.11 9.47614 16.0008 9.58752C15.5438 9.85152 15.0563 10.0589 14.5491 10.205C14.6909 9.69631 14.8985 9.2083 15.1666 8.75335ZM9.95581 8.75335C10.0667 8.6474 10.2141 8.58827 10.3675 8.58827C10.5208 8.58827 10.6683 8.6474 10.7791 8.75335C11.046 9.21278 11.2535 9.7042 11.3966 10.2158C10.8895 10.0697 10.402 9.86236 9.94498 9.59835C9.88796 9.54374 9.84258 9.47816 9.81158 9.40555C9.78058 9.33294 9.7646 9.2548 9.7646 9.17585C9.7646 9.0969 9.78058 9.01876 9.81158 8.94615C9.84258 8.87354 9.88796 8.80796 9.94498 8.75335H9.95581ZM14.0833 18.8284C14.0115 18.8284 13.9426 18.8569 13.8918 18.9077C13.841 18.9585 13.8125 19.0274 13.8125 19.0992V24.5159C13.8125 24.5877 13.841 24.6566 13.8918 24.7074C13.9426 24.7581 14.0115 24.7867 14.0833 24.7867H16.8675C17.3459 24.7826 17.8053 24.5987 18.1545 24.2716C18.5037 23.9445 18.7172 23.498 18.7525 23.0209L19.0341 19.11C19.0373 19.0723 19.0321 19.0343 19.019 18.9987C19.0059 18.9632 18.9852 18.9309 18.9583 18.9042C18.9332 18.8782 18.9028 18.8579 18.8692 18.8448C18.8355 18.8317 18.7994 18.8261 18.7633 18.8284H14.0833ZM12.155 19.0992C12.155 19.0274 12.1264 18.9585 12.0757 18.9077C12.0249 18.8569 11.956 18.8284 11.8841 18.8284H7.20414C7.16651 18.8266 7.1289 18.8324 7.09354 18.8454C7.05819 18.8584 7.0258 18.8784 6.99831 18.9042C6.95119 18.962 6.92794 19.0356 6.93331 19.11L7.20414 23.0209C7.24206 23.499 7.45777 23.9455 7.80872 24.2724C8.15968 24.5993 8.62039 24.7828 9.09998 24.7867H11.9166C11.9885 24.7867 12.0574 24.7581 12.1082 24.7074C12.1589 24.6566 12.1875 24.5877 12.1875 24.5159L12.155 19.0992ZM13 5.01585C13.2873 5.01585 13.5628 4.90171 13.766 4.69855C13.9692 4.49538 14.0833 4.21983 14.0833 3.93252V2.30752C14.0833 2.0202 13.9692 1.74465 13.766 1.54148C13.5628 1.33832 13.2873 1.22418 13 1.22418C12.7127 1.22418 12.4371 1.33832 12.2339 1.54148C12.0308 1.74465 11.9166 2.0202 11.9166 2.30752V3.93252C11.9166 4.21983 12.0308 4.49538 12.2339 4.69855C12.4371 4.90171 12.7127 5.01585 13 5.01585ZM6.62998 7.58335C6.73152 7.48264 6.81211 7.36282 6.86711 7.23081C6.92211 7.09879 6.95042 6.95719 6.95042 6.81418C6.95042 6.67117 6.92211 6.52957 6.86711 6.39756C6.81211 6.26554 6.73152 6.14573 6.62998 6.04502L5.48164 4.94002C5.27867 4.73824 5.00409 4.62499 4.71789 4.62499C4.43169 4.62499 4.15712 4.73824 3.95414 4.94002C3.8493 5.04107 3.7659 5.16223 3.70894 5.29625C3.65197 5.43027 3.62262 5.57439 3.62262 5.72002C3.62262 5.86564 3.65197 6.00976 3.70894 6.14378C3.7659 6.2778 3.8493 6.39896 3.95414 6.50002L5.10248 7.58335C5.30545 7.78512 5.58003 7.89837 5.86623 7.89837C6.15243 7.89837 6.427 7.78512 6.62998 7.58335ZM2.91414 12.87H1.28914C1.00183 12.87 0.726276 12.9842 0.523112 13.1873C0.319947 13.3905 0.205811 13.666 0.205811 13.9533C0.205811 14.2407 0.319947 14.5162 0.523112 14.7194C0.726276 14.9225 1.00183 15.0367 1.28914 15.0367H2.91414C3.20146 15.0367 3.47701 14.9225 3.68018 14.7194C3.88334 14.5162 3.99748 14.2407 3.99748 13.9533C3.99748 13.666 3.88334 13.3905 3.68018 13.1873C3.47701 12.9842 3.20146 12.87 2.91414 12.87ZM22.0458 4.94002C21.8428 4.73824 21.5683 4.62499 21.2821 4.62499C20.9959 4.62499 20.7213 4.73824 20.5183 4.94002L19.37 6.08835C19.2684 6.18906 19.1878 6.30888 19.1328 6.44089C19.0778 6.57291 19.0495 6.7145 19.0495 6.85752C19.0495 7.00053 19.0778 7.14213 19.1328 7.27414C19.1878 7.40615 19.2684 7.52597 19.37 7.62668C19.573 7.82845 19.8475 7.94171 20.1337 7.94171C20.4199 7.94171 20.6945 7.82845 20.8975 7.62668L22.0458 6.50002C22.1507 6.39896 22.2341 6.2778 22.291 6.14378C22.348 6.00976 22.3773 5.86564 22.3773 5.72002C22.3773 5.57439 22.348 5.43027 22.291 5.29625C22.2341 5.16223 22.1507 5.04107 22.0458 4.94002ZM24.7108 12.87H23.0858C22.7985 12.87 22.5229 12.9842 22.3198 13.1873C22.1166 13.3905 22.0025 13.666 22.0025 13.9533C22.0025 14.2407 22.1166 14.5162 22.3198 14.7194C22.5229 14.9225 22.7985 15.0367 23.0858 15.0367H24.7108C24.9981 15.0367 25.2737 14.9225 25.4768 14.7194C25.68 14.5162 25.7941 14.2407 25.7941 13.9533C25.7941 13.666 25.68 13.3905 25.4768 13.1873C25.2737 12.9842 24.9981 12.87 24.7108 12.87Z" fill="white"/>
</svg>
