<svg width="80" height="80" viewBox="0 0 80 80" fill="none" xmlns="http://www.w3.org/2000/svg">
<path d="M72.3668 29.0334C76.5334 24.8668 74.6334 20.0001 72.3668 17.6334L62.3668 7.63342C58.1668 3.46676 53.3334 5.36676 50.9668 7.63342L45.3001 13.3334H36.6668C30.3334 13.3334 26.6668 16.6668 24.8001 20.5001L10.0001 35.3001V48.6334L7.63342 50.9668C3.46676 55.1668 5.36676 60.0001 7.63342 62.3668L17.6334 72.3668C19.4334 74.1668 21.3668 74.8334 23.2001 74.8334C25.5668 74.8334 27.7334 73.6668 29.0334 72.3668L38.0334 63.3334H50.0001C55.6668 63.3334 58.5334 59.8001 59.5668 56.3334C63.3334 55.3334 65.4001 52.4668 66.2334 49.6668C71.4001 48.3334 73.3334 43.4334 73.3334 40.0001V30.0001H71.3668L72.3668 29.0334ZM66.6668 40.0001C66.6668 41.5001 66.0334 43.3334 63.3334 43.3334H60.0001V46.6668C60.0001 48.1668 59.3668 50.0001 56.6668 50.0001H53.3334V53.3334C53.3334 54.8334 52.7001 56.6668 50.0001 56.6668H35.3001L24.3668 67.6001C23.3334 68.5668 22.7334 68.0001 22.3668 67.6334L12.4001 57.7001C11.4334 56.6668 12.0001 56.0668 12.3668 55.7001L16.6668 51.3668V38.0334L23.3334 31.3668V36.6668C23.3334 40.7001 26.0001 46.6668 33.3334 46.6668C40.6668 46.6668 43.3334 40.7001 43.3334 36.6668H66.6668V40.0001ZM67.6334 24.3001L61.9668 30.0001H36.6668V36.6668C36.6668 38.1668 36.0334 40.0001 33.3334 40.0001C30.6334 40.0001 30.0001 38.1668 30.0001 36.6668V26.6668C30.0001 25.1334 30.5668 20.0001 36.6668 20.0001H48.0334L55.6334 12.4001C56.6668 11.4334 57.2668 12.0001 57.6334 12.3668L67.6001 22.3001C68.5668 23.3334 68.0001 23.9334 67.6334 24.3001Z" fill="#9E7900"/>
</svg>
