<svg width="80" height="80" viewBox="0 0 80 80" fill="none" xmlns="http://www.w3.org/2000/svg">
<path d="M39.0067 66.4732C39.4422 66.4732 39.8889 66.3754 40.3467 66.1799C40.8045 65.9843 41.1745 65.7454 41.4567 65.4632L67.4434 39.4732C68.2811 38.6354 68.9278 37.7799 69.3834 36.9065C69.8367 36.0287 70.0634 35.0665 70.0634 34.0199C70.0634 32.9599 69.8367 31.931 69.3834 30.9332C68.9278 29.9332 68.2811 29.0221 67.4434 28.1999L54.9434 15.6999C54.1189 14.8621 53.2711 14.2476 52.4 13.8565C51.5311 13.4654 50.5667 13.2699 49.5067 13.2699C48.46 13.2699 47.4878 13.4654 46.59 13.8565C45.6922 14.2476 44.8467 14.861 44.0534 15.6965L41.1467 18.6032L47.3134 24.7865C47.9756 25.4376 48.47 26.1776 48.7967 27.0065C49.1211 27.8354 49.2834 28.6765 49.2834 29.5299C49.2834 31.2654 48.7156 32.701 47.58 33.8365C46.4445 34.9721 45.01 35.5387 43.2767 35.5365C42.4211 35.5365 41.5867 35.4065 40.7734 35.1465C39.96 34.8865 39.2278 34.431 38.5767 33.7799L32.2 27.4265L17.8067 41.8165C17.4711 42.1543 17.2189 42.5376 17.05 42.9665C16.8811 43.3954 16.7967 43.8287 16.7967 44.2665C16.7967 45.0532 17.0489 45.701 17.5534 46.2099C18.0556 46.721 18.7 46.9765 19.4867 46.9765C19.9223 46.9765 20.3689 46.8787 20.8267 46.6832C21.2845 46.4854 21.6545 46.2454 21.9367 45.9632L32.5 35.3999L34.86 37.7599L24.3134 48.3265C23.9756 48.6621 23.7223 49.0443 23.5534 49.4732C23.3867 49.9043 23.3034 50.3376 23.3034 50.7732C23.3034 51.5176 23.5656 52.1521 24.09 52.6765C24.6145 53.201 25.2489 53.4643 25.9934 53.4665C26.4289 53.4665 26.8756 53.3676 27.3334 53.1699C27.7911 52.9721 28.1611 52.7332 28.4434 52.4532L39.7767 41.1399L42.1367 43.4965L30.82 54.8299C30.5245 55.1121 30.2823 55.4821 30.0934 55.9399C29.9023 56.3976 29.8067 56.8443 29.8067 57.2799C29.8067 58.0221 30.07 58.6554 30.5967 59.1799C31.1211 59.7087 31.7556 59.9732 32.5 59.9732C32.9356 59.9732 33.3689 59.8887 33.8 59.7199C34.2311 59.551 34.6134 59.2976 34.9467 58.9599L46.28 47.6432L48.64 50.0032L37.3067 61.3365C36.9711 61.6743 36.7189 62.0799 36.55 62.5532C36.3811 63.0265 36.2967 63.4587 36.2967 63.8499C36.2967 64.6365 36.5734 65.271 37.1267 65.7532C37.68 66.2354 38.3067 66.4765 39.0067 66.4765M38.9867 69.8099C37.2734 69.8099 35.8067 69.1832 34.5867 67.9299C33.3667 66.6743 32.8311 65.1254 32.98 63.2832C31.0911 63.3054 29.5189 62.7421 28.2634 61.5932C27.0078 60.4421 26.4111 58.8376 26.4734 56.7799C24.4156 56.8021 22.7934 56.2132 21.6067 55.0132C20.42 53.8132 19.88 52.2332 19.9867 50.2732C18.1334 50.2954 16.5823 49.7732 15.3334 48.7065C14.0867 47.6443 13.4634 46.1643 13.4634 44.2665C13.4634 43.411 13.6289 42.5554 13.96 41.6999C14.2911 40.8421 14.78 40.0887 15.4267 39.4399L32.2 22.6865L40.8067 31.2932C41.0889 31.5887 41.4378 31.8321 41.8534 32.0232C42.2689 32.2143 42.7367 32.3087 43.2567 32.3065C43.97 32.3065 44.6 32.0576 45.1467 31.5599C45.6934 31.0621 45.9678 30.4132 45.97 29.6132C45.97 29.0932 45.8745 28.6265 45.6834 28.2132C45.4922 27.7976 45.25 27.4487 44.9567 27.1665L33.49 15.6999C32.6634 14.8621 31.8045 14.2476 30.9134 13.8565C30.0223 13.4654 29.0467 13.2699 27.9867 13.2699C26.94 13.2699 25.9889 13.4654 25.1334 13.8565C24.28 14.2476 23.4345 14.8621 22.5967 15.6999L12.45 25.8665C11.7345 26.5776 11.1567 27.4276 10.7167 28.4165C10.2767 29.4032 10.0434 30.4221 10.0167 31.4732C9.99448 32.2265 10.0589 32.9499 10.21 33.6432C10.3611 34.3365 10.6056 34.9899 10.9434 35.6032L8.4167 38.1299C7.8567 37.2365 7.41892 36.2076 7.10337 35.0432C6.78781 33.8787 6.64225 32.6899 6.6667 31.4765C6.69337 29.961 6.9967 28.511 7.5767 27.1265C8.1567 25.7421 8.98781 24.5076 10.07 23.4232L20.1534 13.3399C21.3156 12.1887 22.5456 11.3332 23.8434 10.7732C25.1411 10.2154 26.5445 9.93652 28.0534 9.93652C29.5623 9.93652 30.9534 10.2165 32.2267 10.7765C33.5023 11.3343 34.7156 12.1887 35.8667 13.3399L38.7667 16.2432L41.6734 13.3399C42.8356 12.1887 44.0545 11.3332 45.33 10.7732C46.6056 10.2154 47.9978 9.93652 49.5067 9.93652C51.0156 9.93652 52.4189 10.2165 53.7167 10.7765C55.0122 11.3343 56.2345 12.1887 57.3834 13.3399L69.8034 25.7565C70.9522 26.9054 71.8389 28.1954 72.4634 29.6265C73.0878 31.0576 73.3989 32.5276 73.3967 34.0365C73.3967 35.5476 73.0856 36.9399 72.4634 38.2132C71.8411 39.4865 70.9545 40.6999 69.8034 41.8532L43.8134 67.8199C43.1222 68.5132 42.3689 69.0176 41.5534 69.3332C40.74 69.6487 39.8845 69.8065 38.9867 69.8065" fill="#9E7900"/>
</svg>
