<svg width="35" height="35" viewBox="0 0 35 35" fill="none" xmlns="http://www.w3.org/2000/svg">
<path d="M23.3333 30.625V27.5392C22.1219 27.2329 21.0729 26.6423 20.1863 25.7673C19.2996 24.8923 18.7279 23.8379 18.4713 22.6042H19.9296C20.2543 23.6678 20.8537 24.5413 21.7277 25.2248C22.6017 25.9083 23.6231 26.25 24.7917 26.25H29.1667C29.5692 26.25 29.9128 26.3924 30.1977 26.6773C30.4826 26.9622 30.625 27.3058 30.625 27.7083V30.625H23.3333ZM26.9792 23.3333C26.3638 23.3333 25.8456 23.1224 25.4246 22.7004C25.0026 22.2794 24.7917 21.7612 24.7917 21.1458C24.7917 20.5304 25.0026 20.0122 25.4246 19.5913C25.8465 19.1703 26.3647 18.9593 26.9792 18.9583C27.5936 18.9574 28.1118 19.1683 28.5338 19.5913C28.9557 20.0122 29.1667 20.5304 29.1667 21.1458C29.1667 21.7612 28.9557 22.2794 28.5338 22.7004C28.1128 23.1224 27.5946 23.3333 26.9792 23.3333ZM14.2479 19.6875C14.2479 16.8642 15.2338 14.471 17.2054 12.5081C19.1771 10.5452 21.5751 9.56326 24.3994 9.56229V11.0206C21.9853 11.0206 19.933 11.8616 18.2423 13.5435C16.5516 15.2255 15.7058 17.2735 15.7048 19.6875H14.2479ZM18.6229 19.6875C18.6229 18.0814 19.1839 16.7169 20.3058 15.594C21.4278 14.471 22.7923 13.9096 24.3994 13.9096V15.3679C23.2026 15.3679 22.1832 15.7889 21.3412 16.6308C20.5003 17.4718 20.0798 18.4907 20.0798 19.6875H18.6229ZM4.375 16.0417V13.125C4.375 12.7235 4.51743 12.3798 4.80229 12.094C5.08715 11.8081 5.43083 11.6657 5.83333 11.6667H10.2083C11.3769 11.6667 12.3983 11.3249 13.2723 10.6415C14.1463 9.95799 14.7457 9.08444 15.0704 8.02083H16.5579C16.3372 9.21667 15.7792 10.2618 14.8838 11.1563C13.9883 12.0507 12.916 12.651 11.6667 12.9573V16.0417H4.375ZM8.02083 8.75C7.40542 8.75 6.88722 8.53903 6.46625 8.11708C6.04431 7.69611 5.83333 7.17792 5.83333 6.5625C5.83333 5.94708 6.04431 5.42889 6.46625 5.00792C6.88722 4.58597 7.40542 4.375 8.02083 4.375C8.63625 4.375 9.15444 4.58597 9.57542 5.00792C9.99736 5.42889 10.2083 5.94708 10.2083 6.5625C10.2083 7.17792 9.99736 7.69611 9.57542 8.11708C9.15444 8.53903 8.63625 8.75 8.02083 8.75Z" fill="white"/>
</svg>
