<svg width="80" height="80" viewBox="0 0 80 80" fill="none" xmlns="http://www.w3.org/2000/svg">
<path d="M48.3334 65.0001H31.6668M48.3334 65.0001C48.3334 62.6235 48.3334 61.4335 48.4601 60.6435C48.8701 58.1001 48.9401 57.9368 50.5634 55.9368C51.0668 55.3168 52.9334 53.6435 56.6701 50.2968C59.294 47.9547 61.3928 45.0839 62.8284 41.8731C64.2641 38.6622 65.0042 35.184 65.0001 31.6668C65.0022 28.8284 64.5208 26.0103 63.5768 23.3335M48.3334 65.0001C48.3334 68.1168 48.3334 69.6735 47.6634 70.8335C47.2246 71.5935 46.5935 72.2246 45.8334 72.6635C44.6734 73.3335 43.1168 73.3335 40.0001 73.3335C36.8834 73.3335 35.3268 73.3335 34.1668 72.6635C33.4067 72.2246 32.7756 71.5935 32.3368 70.8335C31.6668 69.6735 31.6668 68.1168 31.6668 65.0001M31.6668 65.0001C31.6668 62.6235 31.6668 61.4335 31.5401 60.6435C31.1301 58.1001 31.0601 57.9368 29.4368 55.9368C28.9334 55.3168 27.0634 53.6435 23.3301 50.2968C18.7182 46.1753 15.7979 40.4906 15.1335 34.3412C14.4691 28.1918 16.1079 22.0145 19.733 17.0031C23.3582 11.9917 28.7124 8.50202 34.7608 7.20858C40.8092 5.91513 47.1223 6.90973 52.4801 10.0001" stroke="#9E7900" stroke-width="1.5" stroke-linecap="round"/>
<path d="M42.6201 28.3335L35.4768 38.3335H45.4768L38.3335 48.3335" stroke="#9E7900" stroke-width="1.5" stroke-linecap="round" stroke-linejoin="round"/>
</svg>
