<svg width="80" height="80" viewBox="0 0 80 80" fill="none" xmlns="http://www.w3.org/2000/svg">
<mask id="mask0_286_362" style="mask-type:luminance" maskUnits="userSpaceOnUse" x="20" y="6" width="40" height="68">
<path d="M20 6.6665H60V73.3332H20V6.6665Z" fill="white"/>
<path d="M38.3334 45.9998H33.7667C29.07 45.9998 26.7234 45.9998 25.74 44.4598C24.7567 42.9231 25.7434 40.7931 27.7167 36.5331L36.82 16.8664C38.07 14.1731 38.6934 12.8264 39.3467 12.9664C40 13.1131 40 14.5998 40 17.5664V32.3331C40 33.1198 40 33.5131 40.2434 33.7564C40.4867 33.9998 40.88 33.9998 41.6667 33.9998H46.2334C50.93 33.9998 53.2767 33.9998 54.26 35.5398C55.2434 37.0764 54.2567 39.2064 52.2834 43.4664L43.18 63.1331C41.93 65.8265 41.3067 67.1731 40.6534 67.0331C40 66.8831 40 65.3998 40 62.4331V47.6664C40 46.8798 40 46.4864 39.7567 46.2431C39.5134 45.9998 39.12 45.9998 38.3334 45.9998Z" fill="black"/>
</mask>
<g mask="url(#mask0_286_362)">
<path d="M38.3334 45.9998H33.7667C29.07 45.9998 26.7234 45.9998 25.74 44.4598C24.7567 42.9231 25.7434 40.7931 27.7167 36.5331L36.82 16.8664C38.07 14.1731 38.6934 12.8264 39.3467 12.9664C40 13.1131 40 14.5998 40 17.5664V32.3331C40 33.1198 40 33.5131 40.2434 33.7564C40.4867 33.9998 40.88 33.9998 41.6667 33.9998H46.2334C50.93 33.9998 53.2767 33.9998 54.26 35.5398C55.2434 37.0764 54.2567 39.2064 52.2834 43.4664L43.18 63.1331C41.93 65.8264 41.3067 67.1731 40.6534 67.0331C40 66.8831 40 65.3998 40 62.4331V47.6664C40 46.8798 40 46.4864 39.7567 46.2431C39.5134 45.9998 39.12 45.9998 38.3334 45.9998Z" stroke="#9E7900" stroke-width="2"/>
</g>
</svg>
