<svg width="80" height="80" viewBox="0 0 80 80" fill="none" xmlns="http://www.w3.org/2000/svg">
<path d="M70 36.6668C70 55.1668 57.2 72.4668 40 76.6668C22.8 72.4668 10 55.1668 10 36.6668V16.6668L40 3.3335L70 16.6668V36.6668ZM40 70.0002C52.5 66.6668 63.3333 51.8002 63.3333 37.4002V21.0002L40 10.6002L16.6667 21.0002V37.4002C16.6667 51.8002 27.5 66.6668 40 70.0002ZM49.3333 36.6668V31.6668C49.3333 27.0002 44.6667 23.3335 40 23.3335C35.3333 23.3335 30.6667 27.0002 30.6667 31.6668V36.6668C28.6667 36.6668 26.6667 38.6668 26.6667 40.6668V52.3335C26.6667 54.6668 28.6667 56.6668 30.6667 56.6668H49C51.3333 56.6668 53.3333 54.6668 53.3333 52.6668V41.0002C53.3333 38.6668 51.3333 36.6668 49.3333 36.6668ZM45 36.6668H35V31.6668C35 29.0002 37.3333 27.3335 40 27.3335C42.6667 27.3335 45 29.0002 45 31.6668V36.6668Z" fill="#9E7900"/>
</svg>
