<svg width="80" height="80" viewBox="0 0 80 80" fill="none" xmlns="http://www.w3.org/2000/svg">
<path d="M70 36.6667C70 55.1667 57.2 72.4667 40 76.6667C22.8 72.4667 10 55.1667 10 36.6667V16.6667L40 3.33337L70 16.6667V36.6667ZM40 70C52.5 66.6667 63.3333 51.8 63.3333 37.4V21L40 10.6L16.6667 21V37.4C16.6667 51.8 27.5 66.6667 40 70ZM49.3333 36.6667V31.6667C49.3333 27 44.6667 23.3334 40 23.3334C35.3333 23.3334 30.6667 27 30.6667 31.6667V36.6667C28.6667 36.6667 26.6667 38.6667 26.6667 40.6667V52.3334C26.6667 54.6667 28.6667 56.6667 30.6667 56.6667H49C51.3333 56.6667 53.3333 54.6667 53.3333 52.6667V41C53.3333 38.6667 51.3333 36.6667 49.3333 36.6667ZM45 36.6667H35V31.6667C35 29 37.3333 27.3334 40 27.3334C42.6667 27.3334 45 29 45 31.6667V36.6667Z" fill="white"/>
</svg>
