<svg width="26" height="26" viewBox="0 0 26 26" fill="none" xmlns="http://www.w3.org/2000/svg">
<path d="M2.16772 12.9989H17.3344M17.3344 12.9989L13.5427 9.74892M17.3344 12.9989L13.5427 16.2489" stroke="#FEDB67" stroke-width="1.5" stroke-linecap="round" stroke-linejoin="round"/>
<path d="M9.7522 7.58333C9.7652 5.22708 9.87028 3.95092 10.7023 3.11892C11.6545 2.16667 13.1864 2.16667 16.25 2.16667H17.3334C20.3981 2.16667 21.9299 2.16667 22.8822 3.11892C23.8334 4.07008 23.8334 5.603 23.8334 8.66667V17.3333C23.8334 20.397 23.8334 21.9299 22.8822 22.8811C22.0491 23.7142 20.7729 23.8182 18.4167 23.8312M9.7522 18.4167C9.7652 20.7729 9.87028 22.0491 10.7023 22.8811C11.3967 23.5766 12.4009 23.764 14.0834 23.8149" stroke="#FEDB67" stroke-width="1.5" stroke-linecap="round"/>
</svg>
