<svg width="80" height="80" viewBox="0 0 80 80" fill="none" xmlns="http://www.w3.org/2000/svg">
<path d="M13.3335 53.3333V34.1433C13.333 34.0579 13.3545 33.9738 13.3958 33.899C13.4371 33.8242 13.4968 33.7613 13.5694 33.7161C13.6419 33.671 13.7248 33.6452 13.8101 33.6412C13.8955 33.6372 13.9804 33.6552 14.0568 33.6933L35.5268 44.43C36.9157 45.1247 38.4473 45.4863 40.0002 45.4863C41.5531 45.4863 43.0846 45.1247 44.4735 44.43L65.9402 33.6967C66.0165 33.6579 66.1015 33.6393 66.187 33.6427C66.2725 33.6462 66.3557 33.6716 66.4287 33.7164C66.5016 33.7612 66.5618 33.824 66.6035 33.8988C66.6452 33.9735 66.667 34.0577 66.6668 34.1433V53.3333C66.6668 55.1014 65.9645 56.7971 64.7142 58.0474C63.464 59.2976 61.7683 60 60.0002 60H20.0002C18.2321 60 16.5364 59.2976 15.2861 58.0474C14.0359 56.7971 13.3335 55.1014 13.3335 53.3333Z" fill="#9E7900" fill-opacity="0.8"/>
<path d="M13.3335 26.6667V29.69C13.3336 29.7828 13.3596 29.8737 13.4084 29.9526C13.4573 30.0315 13.5271 30.0952 13.6102 30.1367L35.5268 41.0967C36.9157 41.7913 38.4473 42.153 40.0002 42.153C41.5531 42.153 43.0846 41.7913 44.4735 41.0967L66.3902 30.1367C66.4732 30.0952 66.543 30.0315 66.5919 29.9526C66.6408 29.8737 66.6667 29.7828 66.6668 29.69V26.6667C66.6668 24.8986 65.9644 23.2029 64.7142 21.9526C63.464 20.7024 61.7683 20 60.0002 20H20.0002C18.2321 20 16.5364 20.7024 15.2861 21.9526C14.0359 23.2029 13.3335 24.8986 13.3335 26.6667Z" fill="#9E7900" fill-opacity="0.8"/>
</svg>
