<svg width="30" height="30" viewBox="0 0 30 30" fill="none" xmlns="http://www.w3.org/2000/svg">
<path d="M5 20V12.8037C4.99983 12.7717 5.00787 12.7401 5.02336 12.7121C5.03884 12.6841 5.06125 12.6605 5.08846 12.6435C5.11566 12.6266 5.14674 12.6169 5.17874 12.6154C5.21074 12.6139 5.24259 12.6207 5.27125 12.635L13.3225 16.6612C13.8433 16.9217 14.4177 17.0574 15 17.0574C15.5823 17.0574 16.1567 16.9217 16.6775 16.6612L24.7275 12.6362C24.7561 12.6217 24.788 12.6147 24.8201 12.616C24.8521 12.6173 24.8833 12.6268 24.9107 12.6436C24.938 12.6604 24.9606 12.684 24.9762 12.712C24.9919 12.74 25.0001 12.7716 25 12.8037V20C25 20.663 24.7366 21.2989 24.2678 21.7677C23.7989 22.2366 23.163 22.5 22.5 22.5H7.5C6.83696 22.5 6.20108 22.2366 5.73224 21.7677C5.26339 21.2989 5 20.663 5 20Z" fill="black"/>
<path d="M5 10V11.1337C5.00005 11.1685 5.00978 11.2026 5.0281 11.2322C5.04642 11.2618 5.07262 11.2857 5.10375 11.3013L13.3225 15.4113C13.8433 15.6718 14.4177 15.8074 15 15.8074C15.5823 15.8074 16.1567 15.6718 16.6775 15.4113L24.8962 11.3013C24.9274 11.2857 24.9536 11.2618 24.9719 11.2322C24.9902 11.2026 25 11.1685 25 11.1337V10C25 9.33696 24.7366 8.70107 24.2678 8.23223C23.7989 7.76339 23.163 7.5 22.5 7.5H7.5C6.83696 7.5 6.20107 7.76339 5.73223 8.23223C5.26339 8.70107 5 9.33696 5 10Z" fill="black" fill-opacity="0.25"/>
</svg>
