<svg width="30" height="30" viewBox="0 0 30 30" fill="none" xmlns="http://www.w3.org/2000/svg">
<path d="M15.9188 25.2387C15.5292 25.0656 15.1456 24.8793 14.7688 24.68C12.8913 23.6187 11.1671 22.3067 9.64376 20.78C7.66639 18.9187 6.04228 16.7149 4.85001 14.275C4.21221 12.9638 3.78127 11.5618 3.57251 10.1188C3.28942 8.66126 3.45055 7.15235 4.03501 5.7875C4.39626 5.2 4.83126 4.6625 5.32876 4.18875C5.53064 3.9623 5.77623 3.77901 6.05076 3.64991C6.32529 3.52081 6.62309 3.44856 6.92626 3.4375C7.55751 3.5325 8.12876 3.8625 8.52376 4.365C9.38626 5.32375 10.3113 6.18625 11.2225 7.0975C11.5813 7.405 11.805 7.84125 11.845 8.3125C11.83 8.70875 11.6775 9.0875 11.4138 9.38375C11.1113 9.7675 10.7438 10.1187 10.3925 10.4862C10.1807 10.691 10.0188 10.9416 9.91909 11.2188C9.8194 11.4959 9.78465 11.7923 9.81751 12.085C10.038 12.7694 10.4151 13.393 10.9188 13.9062C11.5263 14.7375 12.1325 15.5062 12.8188 16.32C14.0531 17.7456 15.516 18.9558 17.1475 19.9012C17.3732 20.0714 17.6399 20.1787 17.9205 20.2123C18.2011 20.2459 18.4856 20.2045 18.745 20.0925C19.2882 19.7901 19.7701 19.3891 20.1663 18.91C20.51 18.4913 21.0025 18.2225 21.54 18.1588C22.0188 18.1838 22.47 18.3888 22.8025 18.7338C23.2325 19.1013 23.6 19.5338 24 19.9325C24.3988 20.3325 24.7188 20.62 25.0538 20.9875C25.4554 21.3417 25.8333 21.72 26.1875 22.1225C26.4625 22.4775 26.5925 22.9225 26.555 23.3687C26.4125 23.9029 26.1049 24.3784 25.6763 24.7275C25.0735 25.3547 24.3411 25.8428 23.5302 26.1576C22.7192 26.4724 21.8493 26.6063 20.9813 26.55C19.2239 26.4503 17.5035 26.0047 15.9188 25.2387Z" stroke="#9E7900" stroke-width="1.5" stroke-miterlimit="10" stroke-linecap="round"/>
</svg>
