<svg width="30" height="30" viewBox="0 0 30 30" fill="none" xmlns="http://www.w3.org/2000/svg">
<path d="M6.25 14.375C6.25 12.0175 6.25 10.84 6.9825 10.1075C7.715 9.375 8.8925 9.375 11.25 9.375H18.75C21.1075 9.375 22.285 9.375 23.0175 10.1075C23.75 10.84 23.75 12.0175 23.75 14.375V15.625C23.75 17.9825 23.75 19.16 23.0175 19.8925C22.285 20.625 21.1075 20.625 18.75 20.625H11.25C8.8925 20.625 7.715 20.625 6.9825 19.8925C6.25 19.16 6.25 17.9825 6.25 15.625V14.375Z" stroke="white" stroke-width="1.5"/>
<path opacity="0.5" d="M23.75 2.5V3.125C23.75 3.9538 23.4208 4.74866 22.8347 5.33471C22.2487 5.92076 21.4538 6.25 20.625 6.25H9.375C8.5462 6.25 7.75134 5.92076 7.16529 5.33471C6.57924 4.74866 6.25 3.9538 6.25 3.125V2.5M23.75 27.5V26.875C23.75 26.0462 23.4208 25.2513 22.8347 24.6653C22.2487 24.0792 21.4538 23.75 20.625 23.75H9.375C8.5462 23.75 7.75134 24.0792 7.16529 24.6653C6.57924 25.2513 6.25 26.0462 6.25 26.875V27.5" stroke="white" stroke-width="1.5" stroke-linecap="round"/>
</svg>
