<svg width="31" height="28" viewBox="0 0 31 28" fill="none" xmlns="http://www.w3.org/2000/svg">
<path d="M7.81305 12.1472L9.4518 12.9489C10.4965 13.4612 11.0175 13.717 11.3285 14.1757C11.6396 14.6343 11.6846 15.2129 11.773 16.3714L11.9129 18.1922C12.3124 23.3762 12.5116 25.9673 13.9718 26.3313C15.4325 26.6924 16.8203 24.4925 19.5924 20.0951L27.2023 8.02145C29.3792 4.56892 30.468 2.84122 29.7032 1.7136C28.9384 0.585976 26.9305 0.958473 22.9177 1.70402L8.88554 4.30843C3.77466 5.25745 1.2175 5.73312 1.01267 7.22382C0.807849 8.71452 3.14328 9.8568 7.81305 12.1472Z" stroke="white" stroke-width="2"/>
</svg>
