<svg width="40" height="40" viewBox="0 0 40 40" fill="none" xmlns="http://www.w3.org/2000/svg">
<path d="M10.833 18.3333C11.778 19.3833 12.9263 19.9999 14.1663 19.9999C15.4063 19.9999 16.5547 19.3833 17.4997 18.3333M22.4997 18.3333C23.4447 19.3833 24.593 19.9999 25.833 19.9999C27.073 19.9999 28.2213 19.3833 29.1663 18.3333" stroke="#9E7900" stroke-width="1.5" stroke-linecap="round"/>
<path d="M21.6663 26.6667C21.6663 27.1087 21.4907 27.5326 21.1782 27.8452C20.8656 28.1577 20.4417 28.3333 19.9997 28.3333C19.5576 28.3333 19.1337 28.1577 18.8212 27.8452C18.5086 27.5326 18.333 27.1087 18.333 26.6667C18.333 26.2246 18.5086 25.8007 18.8212 25.4882C19.1337 25.1756 19.5576 25 19.9997 25C20.4417 25 20.8656 25.1756 21.1782 25.4882C21.4907 25.8007 21.6663 26.2246 21.6663 26.6667Z" fill="#9E7900"/>
<path d="M28.3328 6.66659L34.1061 3.33325L31.6661 12.4399L37.4394 9.10659M23.4128 9.16659L26.2994 10.8333L21.7461 12.0533L24.6328 13.7199" stroke="#9E7900" stroke-width="1.5" stroke-linecap="round" stroke-linejoin="round"/>
<path d="M36.6663 19.9999C36.6663 29.2049 29.2047 36.6666 19.9997 36.6666C17.0739 36.6706 14.1991 35.9013 11.6663 34.4366M19.9997 3.33325C10.7947 3.33325 3.33301 10.7949 3.33301 19.9999C3.33301 23.0349 4.14467 25.8833 5.56301 28.3333" stroke="#9E7900" stroke-width="1.5" stroke-linecap="round"/>
</svg>
