<svg width="30" height="30" viewBox="0 0 30 30" fill="none" xmlns="http://www.w3.org/2000/svg">
<g clip-path="url(#clip0_176_184)">
<mask id="mask0_176_184" style="mask-type:luminance" maskUnits="userSpaceOnUse" x="0" y="0" width="30" height="30">
<path d="M0 0H30V30H0V0Z" fill="white"/>
</mask>
<g mask="url(#mask0_176_184)">
<path d="M25 12.5C25 7.78625 25 5.42875 23.535 3.965C22.2062 2.63625 20.1425 2.5125 16.25 2.5M25 17.5C25 22.2137 25 24.5712 23.535 26.035C22.07 27.4987 19.7137 27.5 15 27.5C10.2863 27.5 7.92875 27.5 6.465 26.035C5.00125 24.57 5 22.215 5 17.5V13.7513" stroke="white" stroke-width="1.5" stroke-linecap="round"/>
<path d="M3.41239 6L2.71989 6.6325C2.80774 6.72877 2.9147 6.80566 3.03393 6.85827C3.15317 6.91089 3.28206 6.93806 3.41239 6.93806C3.54272 6.93806 3.67161 6.91089 3.79085 6.85827C3.91008 6.80566 4.01704 6.72877 4.10489 6.6325L3.41239 6ZM5.01739 5.6325C5.18514 5.44884 5.27306 5.20606 5.26181 4.95757C5.25055 4.70909 5.14105 4.47525 4.95739 4.3075C4.77373 4.13975 4.53095 4.05183 4.28246 4.06308C4.03398 4.07434 3.80014 4.18384 3.63239 4.3675L5.01739 5.6325ZM3.19239 4.3675C3.02464 4.18384 2.7908 4.07434 2.54232 4.06308C2.29383 4.05183 2.05105 4.13975 1.86739 4.3075C1.68373 4.47525 1.57422 4.70909 1.56297 4.95757C1.55172 5.20606 1.63964 5.44884 1.80739 5.6325L3.19239 4.3675ZM12.8374 4L13.5299 3.3675C13.442 3.27123 13.3351 3.19434 13.2158 3.14173C13.0966 3.08911 12.9677 3.06194 12.8374 3.06194C12.7071 3.06194 12.5782 3.08911 12.4589 3.14173C12.3397 3.19434 12.2327 3.27123 12.1449 3.3675L12.8374 4ZM11.2324 4.3675C11.0646 4.55116 10.9767 4.79394 10.988 5.04243C10.9992 5.29091 11.1087 5.52475 11.2924 5.6925C11.4761 5.86025 11.7188 5.94817 11.9673 5.93692C12.2158 5.92566 12.4496 5.81616 12.6174 5.6325L11.2324 4.3675ZM13.0574 5.6325C13.1405 5.72344 13.2406 5.79713 13.3521 5.84936C13.4637 5.90159 13.5844 5.93134 13.7075 5.93692C13.8305 5.94249 13.9534 5.92377 14.0692 5.88183C14.185 5.8399 14.2914 5.77556 14.3824 5.6925C14.4733 5.60944 14.547 5.50928 14.5993 5.39774C14.6515 5.2862 14.6812 5.16546 14.6868 5.04243C14.6924 4.91939 14.6737 4.79646 14.6317 4.68065C14.5898 4.56485 14.5255 4.45844 14.4424 4.3675L13.0574 5.6325ZM5.71989 7.8825C5.63749 7.79099 5.53786 7.7166 5.42671 7.66358C5.31556 7.61057 5.19505 7.57997 5.07207 7.57353C4.8237 7.56052 4.58034 7.6467 4.39551 7.81313C4.21069 7.97955 4.09955 8.21258 4.08654 8.46094C4.07353 8.70931 4.15972 8.95268 4.32614 9.1375L5.71989 7.8825ZM10.6749 2.2875C10.8325 2.47483 11.0571 2.59308 11.3007 2.61699C11.5444 2.64089 11.7877 2.56855 11.9787 2.41542C12.1697 2.2623 12.2932 2.04053 12.3229 1.79753C12.3525 1.55453 12.286 1.30957 12.1374 1.115L10.6749 2.2875ZM7.97489 -0.9375C4.85739 -0.9375 2.47489 1.80375 2.47489 5H4.34989C4.34989 2.675 6.04989 0.9375 7.97489 0.9375V-0.9375ZM2.47489 5L2.47614 6H4.35114L4.34989 5H2.47489ZM4.10489 6.6325L5.01739 5.6325L3.63239 4.3675L2.71989 5.3675L4.10489 6.6325ZM4.10489 5.3675L3.19239 4.3675L1.80739 5.6325L2.71989 6.6325L4.10489 5.3675ZM8.27489 10.9375C11.3924 10.9375 13.7749 8.19625 13.7749 5H11.8999C11.8999 7.325 10.1999 9.0625 8.27489 9.0625V10.9375ZM13.7749 5V4H11.8999V5H13.7749ZM12.1461 3.3675L11.2336 4.3675L12.6186 5.6325L13.5311 4.6325L12.1461 3.3675ZM12.1461 4.6325L13.0574 5.6325L14.4436 4.3675L13.5299 3.3675L12.1461 4.6325ZM4.32489 9.13625C5.31239 10.235 6.70989 10.9375 8.27239 10.9375V9.0625C7.29114 9.0625 6.38614 8.625 5.71864 7.8825L4.32489 9.13625ZM12.1374 1.115C11.1424 -0.125 9.65614 -0.9375 7.97489 -0.9375V0.9375C9.02864 0.9375 9.99739 1.4425 10.6749 2.2875L12.1374 1.115Z" fill="white"/>
<path d="M18.75 23.75H11.25" stroke="white" stroke-width="1.5" stroke-linecap="round"/>
</g>
</g>
<defs>
<clipPath id="clip0_176_184">
<rect width="30" height="30" fill="white"/>
</clipPath>
</defs>
</svg>
