<svg width="30" height="30" viewBox="0 0 30 30" fill="none" xmlns="http://www.w3.org/2000/svg">
<path d="M28.0875 6.5C27.5 6.2 26.8875 5.95 26.25 5.7375V20.775C24.825 20.2625 23.3625 20 21.875 20C19.5 20 17.15 20.675 15 21.975V6.85C12.975 5.6875 10.6375 5 8.125 5C5.8875 5 3.775 5.55 1.9125 6.5C1.5 6.7 1.25 7.1375 1.25 7.6V22.7C1.25 23.425 1.8375 23.9375 2.5 23.9375C2.7 23.9375 2.9 23.8875 3.1 23.7875C4.6125 23 6.3125 22.5 8.125 22.5C10.7125 22.5 13.1 23.525 15 25C16.9 23.525 19.2875 22.5 21.875 22.5C23.6875 22.5 25.3875 23 26.9 23.8C27.1 23.9 27.3 23.95 27.5 23.95C28.15 23.95 28.75 23.4375 28.75 22.7125V7.6C28.75 7.1375 28.5 6.7 28.0875 6.5ZM12.5 20.775C11.075 20.2625 9.6125 20 8.125 20C6.6375 20 5.175 20.2625 3.75 20.775V8.3875C5.1375 7.8 6.6 7.5 8.125 7.5C9.625 7.5 11.1125 7.8125 12.5 8.4V20.775ZM23.75 0.625L17.5 6.875V18.75L23.75 13.125V0.625Z" fill="#9E7900"/>
</svg>
