<svg width="30" height="30" viewBox="0 0 30 30" fill="none" xmlns="http://www.w3.org/2000/svg">
<path d="M15 12.5C17.7614 12.5 20 10.2614 20 7.5C20 4.73858 17.7614 2.5 15 2.5C12.2386 2.5 10 4.73858 10 7.5C10 10.2614 12.2386 12.5 15 12.5Z" stroke="white" stroke-width="1.5"/>
<path d="M22.5 11.25C24.5712 11.25 26.25 9.85 26.25 8.125C26.25 6.4 24.5712 5 22.5 5M7.5 11.25C5.42875 11.25 3.75 9.85 3.75 8.125C3.75 6.4 5.42875 5 7.5 5M21.4963 18.75C22.1338 19.485 22.5 20.3388 22.5 21.25C22.5 24.0125 19.1425 26.25 15 26.25C10.8575 26.25 7.5 24.0125 7.5 21.25C7.5 18.4875 10.8575 16.25 15 16.25C15.4258 16.25 15.8425 16.2729 16.25 16.3188M25 23.75C27.1925 23.2688 28.75 22.0513 28.75 20.625C28.75 19.1987 27.1925 17.9812 25 17.5M5 23.75C2.8075 23.2688 1.25 22.0513 1.25 20.625C1.25 19.1987 2.8075 17.9812 5 17.5" stroke="white" stroke-width="1.5" stroke-linecap="round"/>
</svg>
