<svg width="30" height="30" viewBox="0 0 30 30" fill="none" xmlns="http://www.w3.org/2000/svg">
<path d="M22.9463 2.0175C23.0742 1.80434 23.2816 1.65075 23.5228 1.5905C23.7641 1.53026 24.0193 1.5683 24.2325 1.69625L24.2362 1.69875L24.24 1.70125L24.2525 1.70875C24.3011 1.73878 24.3486 1.77047 24.395 1.80375C24.4842 1.86542 24.5996 1.95375 24.7412 2.06875C25.0187 2.3 25.3812 2.64625 25.7437 3.11625C26.4712 4.0625 27.1875 5.50875 27.1875 7.5C27.1875 9.49125 26.4712 10.9375 25.7437 11.8838C25.3812 12.3538 25.0187 12.7 24.7412 12.9313C24.5908 13.0571 24.433 13.174 24.2688 13.2813L24.2525 13.2913L24.24 13.2988L24.2362 13.3013L24.2337 13.3025C24.2337 13.3025 24.2325 13.3038 23.75 12.5L24.2325 13.3038C24.0202 13.4242 23.7692 13.4572 23.533 13.3955C23.2968 13.3339 23.0939 13.1825 22.9676 12.9736C22.8412 12.7647 22.8014 12.5148 22.8564 12.2769C22.9115 12.0391 23.0572 11.8321 23.2625 11.7L23.2687 11.695L23.3188 11.6613C23.3696 11.6263 23.4433 11.5696 23.54 11.4913C23.7313 11.3313 23.9938 11.0838 24.2563 10.7413C24.7788 10.0625 25.3125 9.00875 25.3125 7.5C25.3125 5.99125 24.7787 4.9375 24.2575 4.25875C24.0464 3.98329 23.8058 3.73179 23.54 3.50875C23.4527 3.43678 23.3622 3.36879 23.2687 3.305L23.2625 3.3C23.0512 3.17123 22.8994 2.96415 22.8401 2.72391C22.7809 2.48366 22.819 2.22974 22.9463 2.0175ZM12.5 12.5C13.8261 12.5 15.0979 11.9732 16.0355 11.0355C16.9732 10.0979 17.5 8.82608 17.5 7.5C17.5 6.17392 16.9732 4.90215 16.0355 3.96447C15.0979 3.02679 13.8261 2.5 12.5 2.5C11.1739 2.5 9.90215 3.02679 8.96447 3.96447C8.02678 4.90215 7.5 6.17392 7.5 7.5C7.5 8.82608 8.02678 10.0979 8.96447 11.0355C9.90215 11.9732 11.1739 12.5 12.5 12.5ZM2.5 21.875C2.5 24.9813 2.5 27.5 12.5 27.5C22.5 27.5 22.5 24.9813 22.5 21.875C22.5 18.7688 18.0225 16.25 12.5 16.25C6.9775 16.25 2.5 18.7688 2.5 21.875Z" fill="white"/>
<path d="M21.7326 4.19625C21.627 4.1327 21.5099 4.09059 21.388 4.07235C21.2661 4.0541 21.1418 4.06006 21.0222 4.0899C20.9026 4.11974 20.7901 4.17286 20.6911 4.24624C20.592 4.31961 20.5085 4.41179 20.4451 4.5175L20.7576 5.7975L20.7663 5.80375L20.8451 5.865C20.9201 5.9275 21.0251 6.02625 21.1326 6.165C21.4229 6.54851 21.5745 7.01916 21.5626 7.5C21.5745 7.98084 21.4229 8.45149 21.1326 8.835C21.0278 8.97211 20.9045 9.0941 20.7663 9.1975L20.7563 9.2025C20.5485 9.33391 20.4006 9.54172 20.3445 9.78115C20.2885 10.0206 20.3287 10.2724 20.4566 10.4825C20.5845 10.6925 20.7898 10.8439 21.0282 10.904C21.2667 10.9641 21.5192 10.9281 21.7313 10.8038H21.7338L21.7363 10.8013L21.7401 10.8L21.7488 10.7938L21.7738 10.7788C21.8687 10.7175 21.9593 10.6498 22.0451 10.5763C22.2063 10.4425 22.4126 10.245 22.6188 9.9775C23.161 9.2664 23.4493 8.39414 23.4376 7.5C23.4493 6.60587 23.161 5.7336 22.6188 5.0225C22.3976 4.73451 22.1357 4.48019 21.8413 4.2675L21.7738 4.22125L21.7488 4.20625L21.7401 4.2L21.7363 4.19875L21.7338 4.1975C21.7338 4.1975 21.7326 4.19625 21.2501 5L21.7326 4.19625Z" fill="white"/>
</svg>
