<svg width="80" height="80" viewBox="0 0 80 80" fill="none" xmlns="http://www.w3.org/2000/svg">
<path fill-rule="evenodd" clip-rule="evenodd" d="M36.6667 10.1831V26.4931C34.6704 26.2909 32.6994 25.8888 30.7833 25.2931C28.039 24.4624 25.4557 23.1718 23.1433 21.4764C21.8091 20.4865 20.613 19.3229 19.5867 18.0164C24.2903 13.6377 30.2795 10.8909 36.6667 10.1831ZM43.3333 10.1831V26.4931C45.3297 26.2909 47.3006 25.8888 49.2167 25.2931C51.961 24.4624 54.5443 23.1718 56.8567 21.4764C58.1909 20.4865 59.3871 19.3229 60.4133 18.0164C55.7097 13.6377 49.7205 10.8909 43.3333 10.1831ZM64.8233 23.1498C63.6522 24.4831 62.33 25.7031 60.8567 26.8098C57.934 28.9628 54.6662 30.6029 51.1933 31.6598C48.6358 32.4501 46.0006 32.963 43.3333 33.1898V36.6664H69.8167C69.2822 31.8194 67.5677 27.1773 64.8233 23.1464M69.8167 43.3331H43.3333V46.8098C46.02 47.0431 48.6667 47.5531 51.1933 48.3398C54.6662 49.3966 57.934 51.0367 60.8567 53.1898C62.33 54.2987 63.6522 55.5209 64.8233 56.8564C67.5682 52.8246 69.2827 48.1813 69.8167 43.3331ZM60.4167 61.9831C59.3894 60.6764 58.1921 59.5128 56.8567 58.5231C54.5443 56.8277 51.961 55.5371 49.2167 54.7064C47.3006 54.1107 45.3297 53.7087 43.3333 53.5064V69.8164C49.7205 69.1086 55.7131 66.3618 60.4167 61.9831ZM36.6667 69.8164V53.5064C34.6433 53.7164 32.6667 54.1198 30.7833 54.7064C28.039 55.5371 25.4557 56.8277 23.1433 58.5231C21.8091 59.513 20.613 60.6766 19.5867 61.9831C24.2903 66.3618 30.2795 69.1086 36.6667 69.8164ZM15.1767 56.8531C16.3478 55.5198 17.67 54.2987 19.1433 53.1898C22.066 51.0367 25.3338 49.3966 28.8067 48.3398C31.3643 47.5495 33.9994 47.0365 36.6667 46.8098V43.3331H10.1833C10.7178 48.1801 12.4323 52.8223 15.1767 56.8531ZM10.1833 36.6664H36.6667V33.1898C33.98 32.9564 31.3333 32.4464 28.8067 31.6598C25.3338 30.6029 22.066 28.9628 19.1433 26.8098C17.696 25.7315 16.3664 24.5036 15.1767 23.1464C12.4335 27.1776 10.7168 31.8197 10.1833 36.6664Z" fill="#9E7900"/>
</svg>
