<svg width="37" height="37" viewBox="0 0 37 37" fill="none" xmlns="http://www.w3.org/2000/svg">
<path d="M15.4167 23.125L23.418 18.5L15.4167 13.875V23.125ZM33.2384 11.0538C33.4388 11.7784 33.5775 12.7496 33.67 13.983C33.778 15.2163 33.8242 16.28 33.8242 17.205L33.9167 18.5C33.9167 21.8763 33.67 24.3584 33.2384 25.9463C32.853 27.3338 31.9588 28.228 30.5713 28.6134C29.8467 28.8138 28.5209 28.9525 26.4859 29.045C24.4817 29.153 22.6471 29.1992 20.9513 29.1992L18.5 29.2917C12.0405 29.2917 8.01671 29.045 6.42879 28.6134C5.04129 28.228 4.14712 27.3338 3.76171 25.9463C3.56129 25.2217 3.42254 24.2505 3.33004 23.0171C3.22212 21.7838 3.17587 20.72 3.17587 19.795L3.08337 18.5C3.08337 15.1238 3.33004 12.6417 3.76171 11.0538C4.14712 9.66629 5.04129 8.77212 6.42879 8.38671C7.15337 8.18629 8.47921 8.04754 10.5142 7.95504C12.5184 7.84712 14.353 7.80087 16.0488 7.80087L18.5 7.70837C24.9596 7.70837 28.9834 7.95504 30.5713 8.38671C31.9588 8.77212 32.853 9.66629 33.2384 11.0538Z" fill="white"/>
</svg>
